{"title":"The Second Best Exotic Marigold Hotel(2015)CAM X264 AC3 MRG","uid":12006169,"size":782938729,"categoryP":"video","categoryS":"movies","magnet":"?xt=urn:btih:9d0f686857a844bc3f462a56dcba867194b948e9&amp;dn=The+Second+Best+Exotic+Marigold+Hotel%282015%29CAM+X264+AC3+MRG&amp;tr=udp%3A%2F%2Ftracker.openbittorrent.com%3A80&amp;tr=udp%3A%2F%2Fopen.demonii.com%3A1337&amp;tr=udp%3A%2F%2Ftracker.coppersurfer.tk%3A6969&amp;tr=udp%3A%2F%2Fexodus.desync.com%3A6969","seeders":3,"leechers":2,"uploader":"makintos13","files":8,"time":1433878911,"description":"Screens:\n &lt;a href=&quot;\nhttp://imgmak.com/GK&quot; rel=&quot;nofollow&quot; target=&quot;_NEW&quot;&gt;\nhttp://imgmak.com/GK&lt;/a&gt;\n &lt;a href=&quot;\nhttp://imgmak.com/GT&quot; rel=&quot;nofollow&quot; target=&quot;_NEW&quot;&gt;\nhttp://imgmak.com/GT&lt;/a&gt;\n &lt;a href=&quot;\nhttp://imgmak.com/Ga&quot; rel=&quot;nofollow&quot; target=&quot;_NEW&quot;&gt;\nhttp://imgmak.com/Ga&lt;/a&gt;\n &lt;a href=&quot;\nhttp://imgmak.com/Gp&quot; rel=&quot;nofollow&quot; target=&quot;_NEW&quot;&gt;\nhttp://imgmak.com/Gp&lt;/a&gt;\n\n:::::::::::::::::::::::::::::::\n\nThe Second Best Exotic Marigold Hotel(2015)CAM X264 AC3 MRG\n\nHC SPANISH SUBZ....................\n\nFormat version : Version 2\nFile size : 746 MiB\nDuration : 1h 56mn\nOverall bit rate : 897 Kbps\nWriting application : Lavf54.63.104\nWriting library : Lavf54.63.104\n\nVideo\nID : 1\nFormat : AVC\nFormat/Info : Advanced Video Codec\nFormat profile : High@L3\nFormat settings, CABAC : Yes\nFormat settings, ReFrames : 4 frames\nCodec ID : V_MPEG4/ISO/AVC\nDuration : 1h 56mn\nBit rate : 700 Kbps\nWidth : 720 pixels\nHeight : 304 pixels\nDisplay aspect ratio : 2.35:1\nOriginal display aspect rat : 2.25:1\nFrame rate mode : Constant\nFrame rate : 24.000 fps\nColor space : YUV\nChroma subsampling : 4:2:0\nBit depth : 8 bits\nScan type : Progressive\nBits/(Pixel*Frame) : 0.133\nStream size : 571 MiB (77%)\nWriting library : x264 core\n\nAudio\nID : 2\nFormat : AC-3\nFormat/Info : Audio Coding 3\nMode extension : CM (complete main)\nFormat settings, Endianness : Big\nCodec ID : A_AC3\nDuration : 1h 56mn\nBit rate mode : Constant\nBit rate : 192 Kbps\nChannel(s) : 2 channels\nChannel positions : Front: L R\nSampling rate : 44.1 KHz\nCompression mode : Lossy\nDelay relative to video : 21ms\nStream size : 160 MiB (21%)\nLanguage : unknown\nDefault : Yes\nForced : No","torrent":{"xt":"urn:btih:9d0f686857a844bc3f462a56dcba867194b948e9","amp;dn":"The+Second+Best+Exotic+Marigold+Hotel%282015%29CAM+X264+AC3+MRG","amp;tr":["udp%3A%2F%2Ftracker.openbittorrent.com%3A80","udp%3A%2F%2Fopen.demonii.com%3A1337","udp%3A%2F%2Ftracker.coppersurfer.tk%3A6969","udp%3A%2F%2Fexodus.desync.com%3A6969"],"infoHash":"9d0f686857a844bc3f462a56dcba867194b948e9","infoHashBuffer":{"type":"Buffer","data":[157,15,104,104,87,168,68,188,63,70,42,86,220,186,134,113,148,185,72,233]},"announce":[],"urlList":[]}}